<?xml version="1.0" encoding="utf-8"?>
<!-- Generator: Adobe Illustrator 23.0.3, SVG Export Plug-In . SVG Version: 6.00 Build 0)  -->
<svg version="1.1" id="Icons" xmlns="http://www.w3.org/2000/svg" xmlns:xlink="http://www.w3.org/1999/xlink" x="0px" y="0px"
	 viewBox="0 0 32 32" style="enable-background:new 0 0 32 32;" xml:space="preserve">
<style type="text/css">
	.st0{fill:none;stroke:#000000;stroke-width:2;stroke-linecap:round;stroke-linejoin:round;stroke-miterlimit:10;}
	.st1{fill:none;stroke:#000000;stroke-width:2;stroke-linejoin:round;stroke-miterlimit:10;}
</style>
<path class="st0" d="M15.7,15.9c0,1.8-1,3.3-2.4,4.2v0c0,1.4,0.9,2.6,2.1,3l0,0c1.6,0.6,2.9,2,3.2,3.7l0.1,0.7
	c0.1,0.3-0.2,0.5-0.4,0.5H3.5c-0.3,0-0.5-0.3-0.4-0.5l0.1-0.7c0.3-1.7,1.6-3.1,3.2-3.7l0,0c1.3-0.4,2.1-1.6,2.1-3v0
	c-1.4-0.9-2.4-2.5-2.4-4.4v-3.9"/>
<path class="st0" d="M4.8,24C3.7,21.6,3,18.6,3,15.9C3,9.6,6.6,7,11,7s8,2.6,8,8.9c0,2.7-0.7,5.7-1.8,8.1"/>
<path class="st0" d="M18.9,15.5c-1,0.2-2.1,0.3-3.2,0.3c-5.5,0-10-3-10.3-6.9"/>
<path class="st0" d="M17.9,25h10.6c0.3,0,0.5-0.3,0.4-0.5c-0.4-2.1-2-3.8-4.1-4.4c-1.7-0.4-3-2-3-3.8c1.4-0.8,2.4-2.4,2.4-4.2v0
	c0-0.9,0.7-1.6,1.6-1.6h0l0-1.9c0-2.3-1.7-4.3-3.9-4.6c-1.6-0.2-3,0.5-3.9,1.7c-0.6-0.1-1.3-0.1-2.1,0.5c-0.6,0.4-1,1-1.1,1.7"/>
</svg>
