<svg id="Layer_2" height="512" viewBox="0 0 128 128" width="512" xmlns="http://www.w3.org/2000/svg" data-name="Layer 2"><path d="m96.519 75.75a11.75 11.75 0 1 0 -11.75-11.75 11.764 11.764 0 0 0 11.75 11.75zm0-20a8.25 8.25 0 1 1 -8.25 8.25 8.26 8.26 0 0 1 8.25-8.25z"/><path d="m31.481 75.75a11.75 11.75 0 1 0 -11.75-11.75 11.763 11.763 0 0 0 11.75 11.75zm0-20a8.25 8.25 0 1 1 -8.25 8.25 8.259 8.259 0 0 1 8.25-8.25z"/><circle cx="112.484" cy="33.182" r="3"/><circle cx="112.484" cy="94.818" r="3"/><circle cx="15.516" cy="33.182" r="3"/><circle cx="15.516" cy="94.818" r="3"/><path d="m121.5 22.442h-115a1.75 1.75 0 0 0 -1.75 1.75v79.616a1.75 1.75 0 0 0 1.75 1.75h115a1.75 1.75 0 0 0 1.75-1.75v-79.616a1.75 1.75 0 0 0 -1.75-1.75zm-1.75 3.5v18.933h-111.5v-18.933zm0 53.683h-111.5v-31.25h111.5zm-78.708 22.433 4.422-9.808h37.072l4.422 9.808zm49.756 0-5.535-12.277a1.752 1.752 0 0 0 -1.6-1.031h-39.33a1.752 1.752 0 0 0 -1.6 1.031l-5.533 12.277h-28.95v-18.933h111.5v18.933z"/><path d="m45.964 38.75h36.072a1.75 1.75 0 0 0 0-3.5h-36.072a1.75 1.75 0 0 0 0 3.5z"/><path d="m54.687 68.813h18.625a1.75 1.75 0 0 0 1.75-1.75v-6.125a1.749 1.749 0 0 0 -1.75-1.75h-18.625a1.75 1.75 0 0 0 -1.75 1.75v6.125a1.751 1.751 0 0 0 1.75 1.75zm1.75-6.125h15.125v2.625h-15.125z"/></svg>