<svg id="Layer_2" height="512" viewBox="0 0 128 128" width="512" xmlns="http://www.w3.org/2000/svg" data-name="Layer 2"><path d="m105.9 22.1a59.222 59.222 0 1 0 0 83.792 59.316 59.316 0 0 0 0-83.792zm-2.475 81.317a55.724 55.724 0 1 1 0-78.842 55.813 55.813 0 0 1 -.004 78.846z"/><path d="m107.714 46.064a47.254 47.254 0 0 0 -25.778-25.778 1.75 1.75 0 1 0 -1.323 3.24 43.76 43.76 0 0 1 23.861 23.861 1.75 1.75 0 1 0 3.24-1.323z"/><path d="m93.168 34.832a40.843 40.843 0 0 0 -13.509-8.988 1.75 1.75 0 1 0 -1.323 3.24 37.684 37.684 0 0 1 20.58 20.58 1.75 1.75 0 1 0 3.24-1.323 40.843 40.843 0 0 0 -8.988-13.509z"/><path d="m47.387 104.474a43.76 43.76 0 0 1 -23.861-23.861 1.75 1.75 0 1 0 -3.24 1.323 47.254 47.254 0 0 0 25.778 25.778 1.75 1.75 0 1 0 1.323-3.24z"/><path d="m49.664 98.916a37.684 37.684 0 0 1 -20.58-20.58 1.75 1.75 0 1 0 -3.24 1.323 41.178 41.178 0 0 0 22.5 22.5 1.75 1.75 0 1 0 1.323-3.24z"/><path d="m64 53.75a10.25 10.25 0 1 0 10.25 10.25 10.261 10.261 0 0 0 -10.25-10.25zm0 17a6.75 6.75 0 1 1 6.75-6.75 6.758 6.758 0 0 1 -6.75 6.75z"/><path d="m64 40.75a23.25 23.25 0 1 0 23.25 23.25 23.276 23.276 0 0 0 -23.25-23.25zm0 43a19.75 19.75 0 1 1 19.75-19.75 19.773 19.773 0 0 1 -19.75 19.75z"/></svg>