<svg xmlns="http://www.w3.org/2000/svg" width="156" height="156">
              <symbol id="hpIconSymbol" viewBox="5.4765625 5.390625 53.3046875 47.5703125">
<g xmlns="http://www.w3.org/2000/svg" fill-rule="nonzero" transform="scale(1,-1) translate(0,-58.373046875)">
<path fill-opacity="1.0" stroke-width="1.0" d="     M 16.693359375,42.96875     C 16.736328125,44.623046875 16.71484375,45.439453125 16.865234375,46.255859375     L 17.7890625,51.5625     C 17.896484375,52.1640625 17.9609375,52.55078125 17.9609375,52.658203125     C 17.9609375,52.830078125 17.853515625,52.98046875 17.638671875,52.98046875     C 17.423828125,52.98046875 17.123046875,52.658203125 16.822265625,52.228515625     L 13.0625,47.09375     L 13.0625,46.986328125     C 15.361328125,45.375 15.662109375,44.81640625 15.619140625,42.96875     L 15.361328125,29.541015625     C 11.408203125,22.38671875 5.478515625,10.505859375 5.478515625,6.875     C 5.478515625,6.015625 6.1015625,5.4140625 6.7890625,5.4140625     C 7.541015625,5.4140625 7.86328125,5.908203125 8.6796875,6.6171875     C 9.474609375,7.326171875 12.203125,9.947265625 13.44921875,10.95703125     C 14.09375,11.494140625 14.974609375,12.375 15.94140625,12.375     C 16.908203125,12.375 17.7890625,11.494140625 18.455078125,10.95703125     C 19.6796875,9.947265625 22.451171875,7.326171875 23.203125,6.6171875     C 23.826171875,5.994140625 24.341796875,5.4140625 25.115234375,5.4140625     C 25.78125,5.4140625 26.404296875,6.015625 26.404296875,6.875     C 26.404296875,10.505859375 20.23828125,22.859375 16.521484375,29.541015625     Z     M 42.75390625,16.306640625     C 43.69921875,17.638671875 44.6875,18.77734375 44.6875,21.140625     C 44.6875,23.16015625 43.978515625,24.642578125 43.978515625,26.08203125     C 43.978515625,27.28515625 44.751953125,28.83203125 49.478515625,28.83203125     C 54.18359375,28.83203125 54.978515625,27.28515625 54.978515625,26.08203125     C 54.978515625,24.642578125 54.26953125,23.16015625 54.26953125,21.140625     C 54.26953125,17.037109375 57.771484375,16.392578125 57.771484375,11.6015625     C 57.771484375,7.798828125 53.92578125,6.31640625 49.478515625,6.31640625     C 47.48046875,6.31640625 45.783203125,6.4453125 43.61328125,7.51953125     C 43.44140625,7.26171875 43.3125,7.00390625 43.162109375,6.724609375     C 45.568359375,5.5859375 47.48046875,5.478515625 49.478515625,5.478515625     C 54.119140625,5.478515625 58.78125,6.91796875 58.78125,11.6015625     C 58.78125,16.7578125 55.279296875,17.359375 55.279296875,21.09765625     C 55.279296875,23.33203125 55.98828125,24.53515625 55.98828125,26.060546875     C 55.98828125,27.7578125 54.634765625,29.51953125 50.123046875,29.69140625     L 49.994140625,43.7421875     C 49.994140625,45.03125 51.60546875,45.41796875 51.541015625,46.126953125     C 51.26171875,49.5859375 51.1328125,50.939453125 51.025390625,51.734375     C 50.939453125,52.314453125 50.14453125,52.55078125 49.478515625,52.55078125     C 48.8125,52.55078125 48.017578125,52.314453125 47.931640625,51.734375     C 47.82421875,50.939453125 47.673828125,49.5859375 47.416015625,46.126953125     C 47.3515625,45.41796875 48.962890625,45.03125 48.962890625,43.7421875     L 48.833984375,29.69140625     C 44.322265625,29.51953125 42.96875,27.7578125 42.96875,26.060546875     C 42.96875,24.53515625 43.677734375,23.33203125 43.677734375,21.09765625     C 43.677734375,19.443359375 42.947265625,18.154296875 42.130859375,17.166015625     C 42.345703125,16.88671875 42.517578125,16.5859375 42.75390625,16.306640625     Z     M 25.458984375,14.78125     C 26.51171875,16.306640625 28.595703125,18.841796875 28.595703125,21.591796875     C 28.595703125,24.87890625 26.76953125,27.306640625 26.3828125,28.080078125     L 26.705078125,28.337890625     C 27.84375,26.619140625 28.939453125,25.759765625 30.486328125,25.759765625     C 31.75390625,25.759765625 32.828125,26.404296875 33.107421875,26.876953125     C 33.365234375,26.404296875 34.439453125,25.759765625 35.70703125,25.759765625     C 37.25390625,25.759765625 38.349609375,26.619140625 39.48828125,28.337890625     L 39.810546875,28.080078125     C 39.423828125,27.306640625 37.59765625,24.87890625 37.59765625,21.591796875     C 37.59765625,17.14453125 41.400390625,16.392578125 41.400390625,11.6015625     C 41.400390625,7.798828125 37.533203125,6.31640625 33.107421875,6.31640625     C 31.15234375,6.31640625 29.4765625,6.595703125 28.166015625,7.154296875     C 28.080078125,6.853515625 27.951171875,6.57421875 27.88671875,6.2734375     C 29.970703125,5.5859375 31.474609375,5.478515625 33.107421875,5.478515625     C 37.748046875,5.478515625 42.41015625,6.91796875 42.41015625,11.6015625     C 42.41015625,16.7578125 38.62890625,17.23046875 38.62890625,21.634765625     C 38.62890625,25.544921875 40.712890625,27.02734375 40.712890625,28.166015625     C 40.712890625,28.810546875 40.21875,29.34765625 39.552734375,29.34765625     C 38.994140625,29.34765625 38.5859375,28.875 38.392578125,28.6171875     C 37.5546875,27.521484375 37.16796875,26.76953125 35.599609375,26.76953125     C 34.546875,26.76953125 33.966796875,27.091796875 33.6875,27.71484375     L 33.666015625,43.7421875     C 33.666015625,45.33203125 34.24609375,45.71875 34.568359375,46.0625     C 34.740234375,46.212890625 34.783203125,46.27734375 34.783203125,46.62109375     C 34.783203125,50.2734375 35.771484375,50.810546875 35.771484375,51.1328125     C 35.771484375,51.412109375 35.556640625,51.51953125 35.427734375,51.60546875     C 34.890625,51.927734375 33.9453125,52.55078125 33.12890625,52.55078125     C 32.3125,52.55078125 31.345703125,51.927734375 30.830078125,51.60546875     C 30.701171875,51.51953125 30.486328125,51.412109375 30.486328125,51.1328125     C 30.486328125,50.810546875 31.474609375,50.2734375 31.474609375,46.62109375     C 31.474609375,46.27734375 31.517578125,46.212890625 31.689453125,46.0625     C 32.01171875,45.783203125 32.591796875,45.396484375 32.591796875,43.7421875     L 32.505859375,27.71484375     C 32.2265625,27.091796875 31.818359375,26.76953125 30.59375,26.76953125     C 29.025390625,26.76953125 28.638671875,27.521484375 27.822265625,28.595703125     C 27.607421875,28.875 27.19921875,29.34765625 26.640625,29.34765625     C 25.974609375,29.34765625 25.48046875,28.810546875 25.48046875,28.166015625     C 25.48046875,27.02734375 27.564453125,25.544921875 27.564453125,21.634765625     C 27.564453125,19.03515625 25.91015625,17.166015625 24.921875,15.85546875     C 25.115234375,15.447265625 25.265625,15.125 25.458984375,14.78125     Z     M 15.94140625,13.384765625     C 14.845703125,13.384765625 13.685546875,12.396484375 12.71875,11.537109375     C 11.38671875,10.35546875 9.796875,9.044921875 7.111328125,6.423828125     C 6.875,6.208984375 6.48828125,6.251953125 6.48828125,6.681640625     C 6.48828125,10.205078125 11.64453125,20.625 15.94140625,28.40234375     C 20.23828125,20.603515625 25.39453125,10.205078125 25.39453125,6.595703125     C 25.39453125,6.294921875 24.986328125,6.23046875 24.79296875,6.423828125     C 22.0859375,9.044921875 20.453125,10.35546875 19.1640625,11.537109375     C 18.197265625,12.396484375 17.037109375,13.384765625 15.94140625,13.384765625     Z     M 49.478515625,19.3359375     C 50.66015625,19.3359375 51.6484375,20.32421875 51.6484375,21.505859375     C 51.6484375,22.6875 50.66015625,23.67578125 49.478515625,23.67578125     C 48.296875,23.67578125 47.30859375,22.6875 47.30859375,21.505859375     C 47.30859375,20.32421875 48.296875,19.3359375 49.478515625,19.3359375     Z "/>
</g>
</symbol>

              <g class="background">
                <rect width="98%" height="98%" fill="rgb(252, 163, 17)" rx="50%" ry="50%" x="1%" y="1%" stroke-width="2%" stroke="rgb(20, 33, 61)"/>
              </g>

              <use xlink:href="#hpIconSymbol" xmlns:xlink="http://www.w3.org/1999/xlink" class="content" fill="rgba(20, 33, 61, 1)" transform-origin="center" style="transform: scale(0.75) rotate(45deg);"/>
            </svg>