<svg id="Layer_2" height="512" viewBox="0 0 128 128" width="512" xmlns="http://www.w3.org/2000/svg" data-name="Layer 2"><path d="m116.88 11.121a21.713 21.713 0 0 0 -37.08 14.471l-42.329 52.046a9.15 9.15 0 0 0 -1.444 9.05l-10.505 10.5a1.735 1.735 0 0 0 -.158 2.281c-.126.029-.256.056-.4.085a6.524 6.524 0 0 0 -3.747 1.919c-1.7 1.7-1.429 3.713-1.253 5.049.171 1.293.158 1.7-.257 2.118s-.826.429-2.12.259c-1.332-.174-3.354-.442-5.05 1.254s-1.432 3.716-1.257 5.052c.17 1.3.157 1.705-.26 2.122a3.24 3.24 0 0 1 -2 .991 6.674 6.674 0 0 0 -3.755 1.939 1.75 1.75 0 0 0 2.474 2.476 3.242 3.242 0 0 1 2.005-.991 6.677 6.677 0 0 0 3.755-1.94c1.7-1.7 1.431-3.716 1.256-5.052-.17-1.3-.156-1.7.261-2.122s.823-.429 2.119-.259c1.336.175 3.355.44 5.051-1.255s1.428-3.713 1.253-5.049c-.171-1.293-.159-1.7.256-2.117a3.107 3.107 0 0 1 1.964-.963 7.072 7.072 0 0 0 2.356-.832l.33.329a1.749 1.749 0 0 0 2.475 0l10.5-10.508a9.1 9.1 0 0 0 9.047-1.452l52.04-42.322a21.714 21.714 0 0 0 14.473-37.079zm-2.475 2.479a18.275 18.275 0 0 1 1.175 24.5l-25.68-25.679a18.264 18.264 0 0 1 24.51 1.174zm-26.985 1.3 25.685 25.684a18.245 18.245 0 0 1 -25.685-25.684zm-57.841 83.875-.157-.157c-.007-.007-.011-.015-.018-.022s-.014-.011-.021-.017l-.149-.149 8.709-8.708c.055.057.1.119.16.175s.122.108.181.165zm18.576-10.962a5.665 5.665 0 0 1 -7.968-7.969l39.98-49.152a21.7 21.7 0 0 0 17.14 17.141z"/><path d="m80.335 45.19-3.535 3.536a1.75 1.75 0 0 0 2.474 2.474l3.536-3.536a1.75 1.75 0 0 0 -2.475-2.475z"/></svg>